<svg id="Layer_1" data-name="Layer 1" xmlns="http://www.w3.org/2000/svg" viewBox="0 0 73.58 40.04"><title>TextIcon</title><path d="M74.75,36.32H23.5A11.16,11.16,0,0,0,12.34,47.48V65.19A11.16,11.16,0,0,0,23.5,76.36H74.75A11.16,11.16,0,0,0,85.91,65.19V47.48A11.16,11.16,0,0,0,74.75,36.32ZM31.13,62.55a6.22,6.22,0,1,1,6.22-6.22A6.22,6.22,0,0,1,31.13,62.55Zm18,0a6.22,6.22,0,1,1,6.22-6.22A6.22,6.22,0,0,1,49.13,62.55Zm17,0a6.22,6.22,0,1,1,6.22-6.22A6.22,6.22,0,0,1,66.13,62.55Z" transform="translate(-12.34 -36.32)"/></svg>